<svg id="Layer_1" data-name="Layer 1" xmlns="http://www.w3.org/2000/svg" viewBox="0 0 432 432"><title>izzy_id_white_exp</title><path d="M284.4,336.57a44.5,44.5,0,0,0,.12,62.32,43,43,0,0,0,61.43,0,44.68,44.68,0,0,0,0-62.32,43.14,43.14,0,0,0-61.55,0m43.18-102.15Q331,209,345.69,143.19q12.68-56.68,12.67-71.62,0-23.28-12.29-37.33t-31.28-14q-19.25,0-31.54,13.91T271,72.33q0,17.72,12.17,70.35,14.94,64,18.61,90.48t3.68,61.62h18.74q0-34.92,3.42-60.36M73.39,190.16H84q13.17,0,20.65,7.1t7.47,20V354.56q0,14.43-5.19,20.27t-17.86,5.82H73.39v23.56H215.74V380.65h-16q-10.64,0-15.84-4.43t-5.19-12.54V162.3L73.39,167.12ZM109.1,42.36A39.63,39.63,0,0,0,96.94,71.62a39.78,39.78,0,0,0,12.16,29.13,41.43,41.43,0,0,0,58.52.12,39.62,39.62,0,0,0,12.15-29.25,41.28,41.28,0,0,0-41.28-41.29,40.26,40.26,0,0,0-29.39,12" fill="#fff"/></svg>