<?xml version="1.0" encoding="utf-8"?>
<!-- Generator: Adobe Illustrator 22.1.0, SVG Export Plug-In . SVG Version: 6.00 Build 0)  -->
<svg version="1.1" id="Layer_1" xmlns="http://www.w3.org/2000/svg" xmlns:xlink="http://www.w3.org/1999/xlink" x="0px" y="0px"
	 viewBox="0 0 285.2 391.6" style="enable-background:new 0 0 285.2 391.6;" xml:space="preserve">
<style type="text/css">
	.st0{fill:#FFFFFF;}
</style>
<title>izzy_id_white_exp</title>
<path class="st0" d="M211,316.3c-16.9,17.3-16.9,45,0.1,62.3c16.6,17,43.8,17.2,60.8,0.6c0.2-0.2,0.4-0.4,0.6-0.6
	c16.9-17.3,16.9-45,0-62.3c-16.7-17-44-17.2-61-0.5C211.4,316,211.2,316.1,211,316.3 M254.2,214.2c2.3-16.9,8.3-47.4,18.1-91.2
	c8.5-37.8,12.7-61.7,12.7-71.6c0-15.5-4.1-28-12.3-37.3c-8.2-9.4-18.6-14-31.3-14c-12.8,0-23.3,4.6-31.5,13.9s-12.3,22-12.2,38.2
	c0,11.8,4.1,35.3,12.2,70.3c10,42.7,16.2,72.8,18.6,90.5s3.7,38.2,3.7,61.6h18.7C250.8,251.3,251.9,231.1,254.2,214.2 M0,169.9h10.6
	c8.8,0,15.7,2.4,20.7,7.1c5,4.7,7.5,11.4,7.5,20v137.3c0,9.6-1.7,16.4-5.2,20.3c-3.5,3.9-9.4,5.8-17.9,5.8H0V384h142.4v-23.6h-16
	c-7.1,0-12.4-1.5-15.8-4.4c-3.5-3-5.2-7.1-5.2-12.5V142.1L0,146.9V169.9z M35.7,22.1c-7.9,7.6-12.4,18.2-12.2,29.3
	c-0.1,11,4.3,21.5,12.2,29.1C51.8,96.7,78,96.7,94.2,80.6c7.9-7.6,12.3-18.2,12.1-29.2c0-22.8-18.5-41.3-41.3-41.3c0,0,0,0,0,0
	C54.1,9.9,43.4,14.2,35.7,22.1"/>
</svg>
